<?xml version="1.0" encoding="utf-8" standalone="no"?>
<!DOCTYPE svg PUBLIC "-//W3C//DTD SVG 1.1//EN"
  "http://www.w3.org/Graphics/SVG/1.1/DTD/svg11.dtd">
<!-- Created with matplotlib (http://matplotlib.org/) -->
<svg height="216pt" version="1.1" viewBox="0 0 576 216" width="576pt" xmlns="http://www.w3.org/2000/svg" xmlns:xlink="http://www.w3.org/1999/xlink">
 <defs>
  <style type="text/css">
*{stroke-linecap:butt;stroke-linejoin:round;}
  </style>
 </defs>
 <g id="figure_1">
  <g id="patch_1">
   <path d="M 0 216 
L 576 216 
L 576 0 
L 0 0 
z
" style="fill:#ffffff;"/>
  </g>
  <g id="axes_1">
   <g id="patch_2">
    <path d="M 46.73 172.6 
L 562.68 172.6 
L 562.68 13.32 
L 46.73 13.32 
z
" style="fill:#fbfbfb;"/>
   </g>
   <g id="matplotlib.axis_1">
    <g id="xtick_1">
     <g id="line2d_1">
      <defs>
       <path d="M 0 0 
L 0 3.5 
" id="m78ac160ea6" style="stroke:#000000;stroke-width:0.8;"/>
      </defs>
      <g>
       <use style="stroke:#000000;stroke-width:0.8;" x="70.182273" xlink:href="#m78ac160ea6" y="172.6"/>
      </g>
     </g>
     <g id="text_1">
      <!-- 0 -->
      <defs>
       <path d="M 52.203125 35.796875 
Q 52.203125 17.28125 46.359375 8.140625 
Q 40.53125 -0.984375 28.515625 -0.984375 
Q 17 -0.984375 10.984375 8.359375 
Q 4.984375 17.71875 4.984375 35.796875 
Q 4.984375 54.4375 10.796875 63.46875 
Q 16.609375 72.515625 28.515625 72.515625 
Q 40.140625 72.515625 46.171875 63.078125 
Q 52.203125 53.65625 52.203125 35.796875 
z
M 13.1875 35.796875 
Q 13.1875 20.21875 16.84375 13.109375 
Q 20.515625 6 28.515625 6 
Q 36.625 6 40.25 13.203125 
Q 43.890625 20.40625 43.890625 35.796875 
Q 43.890625 51.171875 40.25 58.328125 
Q 36.625 65.484375 28.515625 65.484375 
Q 20.515625 65.484375 16.84375 58.421875 
Q 13.1875 51.375 13.1875 35.796875 
z
" id="OpenSans-Regular-30"/>
      </defs>
      <g transform="translate(67.323679 187.198437)scale(0.1 -0.1)">
       <use xlink:href="#OpenSans-Regular-30"/>
      </g>
     </g>
    </g>
    <g id="xtick_2">
     <g id="line2d_2">
      <g>
       <use style="stroke:#000000;stroke-width:0.8;" x="164.93893" xlink:href="#m78ac160ea6" y="172.6"/>
      </g>
     </g>
     <g id="text_2">
      <!-- 20 -->
      <defs>
       <path d="M 51.8125 0 
L 4.890625 0 
L 4.890625 6.984375 
L 23.6875 25.875 
Q 32.28125 34.578125 35.015625 38.28125 
Q 37.75 42 39.109375 45.515625 
Q 40.484375 49.03125 40.484375 53.078125 
Q 40.484375 58.796875 37.015625 62.140625 
Q 33.546875 65.484375 27.390625 65.484375 
Q 22.953125 65.484375 18.96875 64.015625 
Q 14.984375 62.546875 10.109375 58.6875 
L 5.8125 64.203125 
Q 15.671875 72.40625 27.296875 72.40625 
Q 37.359375 72.40625 43.0625 67.25 
Q 48.78125 62.109375 48.78125 53.421875 
Q 48.78125 46.625 44.96875 39.984375 
Q 41.15625 33.34375 30.71875 23.1875 
L 15.09375 7.90625 
L 15.09375 7.515625 
L 51.8125 7.515625 
z
" id="OpenSans-Regular-32"/>
      </defs>
      <g transform="translate(159.221743 187.198437)scale(0.1 -0.1)">
       <use xlink:href="#OpenSans-Regular-32"/>
       <use x="57.177734" xlink:href="#OpenSans-Regular-30"/>
      </g>
     </g>
    </g>
    <g id="xtick_3">
     <g id="line2d_3">
      <g>
       <use style="stroke:#000000;stroke-width:0.8;" x="259.695588" xlink:href="#m78ac160ea6" y="172.6"/>
      </g>
     </g>
     <g id="text_3">
      <!-- 40 -->
      <defs>
       <path d="M 55.171875 16.40625 
L 44.578125 16.40625 
L 44.578125 0 
L 36.8125 0 
L 36.8125 16.40625 
L 2.09375 16.40625 
L 2.09375 23.484375 
L 35.984375 71.78125 
L 44.578125 71.78125 
L 44.578125 23.78125 
L 55.171875 23.78125 
z
M 36.8125 23.78125 
L 36.8125 47.515625 
Q 36.8125 54.5 37.3125 63.28125 
L 36.921875 63.28125 
Q 34.578125 58.59375 32.515625 55.515625 
L 10.203125 23.78125 
z
" id="OpenSans-Regular-34"/>
      </defs>
      <g transform="translate(253.9784 187.198437)scale(0.1 -0.1)">
       <use xlink:href="#OpenSans-Regular-34"/>
       <use x="57.177734" xlink:href="#OpenSans-Regular-30"/>
      </g>
     </g>
    </g>
    <g id="xtick_4">
     <g id="line2d_4">
      <g>
       <use style="stroke:#000000;stroke-width:0.8;" x="354.452245" xlink:href="#m78ac160ea6" y="172.6"/>
      </g>
     </g>
     <g id="text_4">
      <!-- 60 -->
      <defs>
       <path d="M 5.71875 30.515625 
Q 5.71875 51.5625 13.890625 61.984375 
Q 22.078125 72.40625 38.09375 72.40625 
Q 43.609375 72.40625 46.78125 71.484375 
L 46.78125 64.5 
Q 43.015625 65.71875 38.1875 65.71875 
Q 26.703125 65.71875 20.640625 58.5625 
Q 14.59375 51.421875 14.015625 36.078125 
L 14.59375 36.078125 
Q 19.96875 44.484375 31.59375 44.484375 
Q 41.21875 44.484375 46.75 38.671875 
Q 52.296875 32.859375 52.296875 22.90625 
Q 52.296875 11.765625 46.21875 5.390625 
Q 40.140625 -0.984375 29.78125 -0.984375 
Q 18.703125 -0.984375 12.203125 7.34375 
Q 5.71875 15.671875 5.71875 30.515625 
z
M 29.6875 5.90625 
Q 36.625 5.90625 40.453125 10.28125 
Q 44.28125 14.65625 44.28125 22.90625 
Q 44.28125 29.984375 40.71875 34.03125 
Q 37.15625 38.09375 30.078125 38.09375 
Q 25.6875 38.09375 22.015625 36.28125 
Q 18.359375 34.46875 16.1875 31.296875 
Q 14.015625 28.125 14.015625 24.703125 
Q 14.015625 19.671875 15.96875 15.328125 
Q 17.921875 10.984375 21.5 8.4375 
Q 25.09375 5.90625 29.6875 5.90625 
z
" id="OpenSans-Regular-36"/>
      </defs>
      <g transform="translate(348.735058 187.198437)scale(0.1 -0.1)">
       <use xlink:href="#OpenSans-Regular-36"/>
       <use x="57.177734" xlink:href="#OpenSans-Regular-30"/>
      </g>
     </g>
    </g>
    <g id="xtick_5">
     <g id="line2d_5">
      <g>
       <use style="stroke:#000000;stroke-width:0.8;" x="449.208903" xlink:href="#m78ac160ea6" y="172.6"/>
      </g>
     </g>
     <g id="text_5">
      <!-- 80 -->
      <defs>
       <path d="M 28.515625 72.40625 
Q 38.28125 72.40625 43.984375 67.859375 
Q 49.703125 63.328125 49.703125 55.328125 
Q 49.703125 50.046875 46.4375 45.703125 
Q 43.171875 41.359375 35.984375 37.796875 
Q 44.671875 33.640625 48.328125 29.078125 
Q 52 24.515625 52 18.5 
Q 52 9.625 45.796875 4.3125 
Q 39.59375 -0.984375 28.8125 -0.984375 
Q 17.390625 -0.984375 11.234375 4.015625 
Q 5.078125 9.03125 5.078125 18.21875 
Q 5.078125 30.46875 20.015625 37.3125 
Q 13.28125 41.109375 10.34375 45.53125 
Q 7.421875 49.953125 7.421875 55.421875 
Q 7.421875 63.1875 13.15625 67.796875 
Q 18.890625 72.40625 28.515625 72.40625 
z
M 13.09375 18.015625 
Q 13.09375 12.15625 17.15625 8.875 
Q 21.234375 5.609375 28.609375 5.609375 
Q 35.890625 5.609375 39.9375 9.03125 
Q 44 12.453125 44 18.40625 
Q 44 23.140625 40.1875 26.828125 
Q 36.375 30.515625 26.90625 33.984375 
Q 19.625 30.859375 16.359375 27.078125 
Q 13.09375 23.296875 13.09375 18.015625 
z
M 28.421875 65.828125 
Q 22.3125 65.828125 18.84375 62.890625 
Q 15.375 59.96875 15.375 55.078125 
Q 15.375 50.59375 18.25 47.359375 
Q 21.140625 44.140625 28.90625 40.921875 
Q 35.890625 43.84375 38.796875 47.21875 
Q 41.703125 50.59375 41.703125 55.078125 
Q 41.703125 60.015625 38.15625 62.921875 
Q 34.625 65.828125 28.421875 65.828125 
z
" id="OpenSans-Regular-38"/>
      </defs>
      <g transform="translate(443.491715 187.198437)scale(0.1 -0.1)">
       <use xlink:href="#OpenSans-Regular-38"/>
       <use x="57.177734" xlink:href="#OpenSans-Regular-30"/>
      </g>
     </g>
    </g>
    <g id="xtick_6">
     <g id="line2d_6">
      <g>
       <use style="stroke:#000000;stroke-width:0.8;" x="543.96556" xlink:href="#m78ac160ea6" y="172.6"/>
      </g>
     </g>
     <g id="text_6">
      <!-- 100 -->
      <defs>
       <path d="M 34.90625 0 
L 27 0 
L 27 50.875 
Q 27 57.234375 27.390625 62.890625 
Q 26.375 61.859375 25.09375 60.734375 
Q 23.828125 59.625 13.484375 51.21875 
L 9.1875 56.78125 
L 28.078125 71.390625 
L 34.90625 71.390625 
z
" id="OpenSans-Regular-31"/>
      </defs>
      <g transform="translate(535.389779 187.198437)scale(0.1 -0.1)">
       <use xlink:href="#OpenSans-Regular-31"/>
       <use x="57.177734" xlink:href="#OpenSans-Regular-30"/>
       <use x="114.355469" xlink:href="#OpenSans-Regular-30"/>
      </g>
     </g>
    </g>
    <g id="text_7">
     <!-- Trial -->
     <defs>
      <path d="M 31.78125 0 
L 23.484375 0 
L 23.484375 64.015625 
L 0.875 64.015625 
L 0.875 71.390625 
L 54.390625 71.390625 
L 54.390625 64.015625 
L 31.78125 64.015625 
z
" id="OpenSans-Regular-54"/>
      <path d="M 33.015625 54.5 
Q 36.578125 54.5 39.40625 53.90625 
L 38.28125 46.390625 
Q 34.96875 47.125 32.421875 47.125 
Q 25.921875 47.125 21.3125 41.84375 
Q 16.703125 36.578125 16.703125 28.71875 
L 16.703125 0 
L 8.59375 0 
L 8.59375 53.515625 
L 15.28125 53.515625 
L 16.21875 43.609375 
L 16.609375 43.609375 
Q 19.578125 48.828125 23.78125 51.65625 
Q 27.984375 54.5 33.015625 54.5 
z
" id="OpenSans-Regular-72"/>
      <path d="M 16.703125 0 
L 8.59375 0 
L 8.59375 53.515625 
L 16.703125 53.515625 
z
M 7.90625 68.015625 
Q 7.90625 70.796875 9.265625 72.09375 
Q 10.640625 73.390625 12.703125 73.390625 
Q 14.65625 73.390625 16.0625 72.0625 
Q 17.484375 70.75 17.484375 68.015625 
Q 17.484375 65.28125 16.0625 63.9375 
Q 14.65625 62.59375 12.703125 62.59375 
Q 10.640625 62.59375 9.265625 63.9375 
Q 7.90625 65.28125 7.90625 68.015625 
z
" id="OpenSans-Regular-69"/>
      <path d="M 41.5 0 
L 39.890625 7.625 
L 39.5 7.625 
Q 35.5 2.59375 31.515625 0.796875 
Q 27.546875 -0.984375 21.578125 -0.984375 
Q 13.625 -0.984375 9.109375 3.125 
Q 4.59375 7.234375 4.59375 14.796875 
Q 4.59375 31 30.515625 31.78125 
L 39.59375 32.078125 
L 39.59375 35.40625 
Q 39.59375 41.703125 36.890625 44.703125 
Q 34.1875 47.703125 28.21875 47.703125 
Q 21.53125 47.703125 13.09375 43.609375 
L 10.59375 49.8125 
Q 14.546875 51.953125 19.25 53.171875 
Q 23.96875 54.390625 28.71875 54.390625 
Q 38.28125 54.390625 42.890625 50.140625 
Q 47.515625 45.90625 47.515625 36.53125 
L 47.515625 0 
z
M 23.1875 5.71875 
Q 30.765625 5.71875 35.078125 9.859375 
Q 39.40625 14.015625 39.40625 21.484375 
L 39.40625 26.3125 
L 31.296875 25.984375 
Q 21.625 25.640625 17.359375 22.96875 
Q 13.09375 20.3125 13.09375 14.703125 
Q 13.09375 10.296875 15.75 8 
Q 18.40625 5.71875 23.1875 5.71875 
z
" id="OpenSans-Regular-61"/>
      <path d="M 16.703125 0 
L 8.59375 0 
L 8.59375 75.984375 
L 16.703125 75.984375 
z
" id="OpenSans-Regular-6c"/>
     </defs>
     <g transform="translate(294.590937 201.2)scale(0.1 -0.1)">
      <use xlink:href="#OpenSans-Regular-54"/>
      <use x="55.244141" xlink:href="#OpenSans-Regular-72"/>
      <use x="96.064453" xlink:href="#OpenSans-Regular-69"/>
      <use x="121.357422" xlink:href="#OpenSans-Regular-61"/>
      <use x="176.972656" xlink:href="#OpenSans-Regular-6c"/>
     </g>
    </g>
   </g>
   <g id="matplotlib.axis_2">
    <g id="ytick_1">
     <g id="line2d_7">
      <defs>
       <path d="M 0 0 
L -3.5 0 
" id="m3ca43a21c1" style="stroke:#000000;stroke-width:0.8;"/>
      </defs>
      <g>
       <use style="stroke:#000000;stroke-width:0.8;" x="46.73" xlink:href="#m3ca43a21c1" y="165.36"/>
      </g>
     </g>
     <g id="text_8">
      <!-- 0.0 -->
      <defs>
       <path d="M 7.421875 5.171875 
Q 7.421875 8.453125 8.90625 10.125 
Q 10.40625 11.8125 13.1875 11.8125 
Q 16.015625 11.8125 17.59375 10.125 
Q 19.1875 8.453125 19.1875 5.171875 
Q 19.1875 2 17.578125 0.28125 
Q 15.96875 -1.421875 13.1875 -1.421875 
Q 10.6875 -1.421875 9.046875 0.109375 
Q 7.421875 1.65625 7.421875 5.171875 
z
" id="OpenSans-Regular-2e"/>
      </defs>
      <g transform="translate(25.634688 169.159219)scale(0.1 -0.1)">
       <use xlink:href="#OpenSans-Regular-30"/>
       <use x="57.177734" xlink:href="#OpenSans-Regular-2e"/>
       <use x="83.789062" xlink:href="#OpenSans-Regular-30"/>
      </g>
     </g>
    </g>
    <g id="ytick_2">
     <g id="line2d_8">
      <g>
       <use style="stroke:#000000;stroke-width:0.8;" x="46.73" xlink:href="#m3ca43a21c1" y="136.4"/>
      </g>
     </g>
     <g id="text_9">
      <!-- 0.2 -->
      <g transform="translate(25.634688 140.199219)scale(0.1 -0.1)">
       <use xlink:href="#OpenSans-Regular-30"/>
       <use x="57.177734" xlink:href="#OpenSans-Regular-2e"/>
       <use x="83.789062" xlink:href="#OpenSans-Regular-32"/>
      </g>
     </g>
    </g>
    <g id="ytick_3">
     <g id="line2d_9">
      <g>
       <use style="stroke:#000000;stroke-width:0.8;" x="46.73" xlink:href="#m3ca43a21c1" y="107.44"/>
      </g>
     </g>
     <g id="text_10">
      <!-- 0.4 -->
      <g transform="translate(25.634688 111.239219)scale(0.1 -0.1)">
       <use xlink:href="#OpenSans-Regular-30"/>
       <use x="57.177734" xlink:href="#OpenSans-Regular-2e"/>
       <use x="83.789062" xlink:href="#OpenSans-Regular-34"/>
      </g>
     </g>
    </g>
    <g id="ytick_4">
     <g id="line2d_10">
      <g>
       <use style="stroke:#000000;stroke-width:0.8;" x="46.73" xlink:href="#m3ca43a21c1" y="78.48"/>
      </g>
     </g>
     <g id="text_11">
      <!-- 0.6 -->
      <g transform="translate(25.634688 82.279219)scale(0.1 -0.1)">
       <use xlink:href="#OpenSans-Regular-30"/>
       <use x="57.177734" xlink:href="#OpenSans-Regular-2e"/>
       <use x="83.789062" xlink:href="#OpenSans-Regular-36"/>
      </g>
     </g>
    </g>
    <g id="ytick_5">
     <g id="line2d_11">
      <g>
       <use style="stroke:#000000;stroke-width:0.8;" x="46.73" xlink:href="#m3ca43a21c1" y="49.52"/>
      </g>
     </g>
     <g id="text_12">
      <!-- 0.8 -->
      <g transform="translate(25.634688 53.319219)scale(0.1 -0.1)">
       <use xlink:href="#OpenSans-Regular-30"/>
       <use x="57.177734" xlink:href="#OpenSans-Regular-2e"/>
       <use x="83.789062" xlink:href="#OpenSans-Regular-38"/>
      </g>
     </g>
    </g>
    <g id="ytick_6">
     <g id="line2d_12">
      <g>
       <use style="stroke:#000000;stroke-width:0.8;" x="46.73" xlink:href="#m3ca43a21c1" y="20.56"/>
      </g>
     </g>
     <g id="text_13">
      <!-- 1.0 -->
      <g transform="translate(25.634688 24.359219)scale(0.1 -0.1)">
       <use xlink:href="#OpenSans-Regular-31"/>
       <use x="57.177734" xlink:href="#OpenSans-Regular-2e"/>
       <use x="83.789062" xlink:href="#OpenSans-Regular-30"/>
      </g>
     </g>
    </g>
    <g id="text_14">
     <!-- Reward -->
     <defs>
      <path d="M 18.109375 29.6875 
L 18.109375 0 
L 9.8125 0 
L 9.8125 71.390625 
L 29.390625 71.390625 
Q 42.53125 71.390625 48.796875 66.359375 
Q 55.078125 61.328125 55.078125 51.21875 
Q 55.078125 37.0625 40.71875 32.078125 
L 60.109375 0 
L 50.296875 0 
L 33.015625 29.6875 
z
M 18.109375 36.8125 
L 29.5 36.8125 
Q 38.28125 36.8125 42.375 40.296875 
Q 46.484375 43.796875 46.484375 50.78125 
Q 46.484375 57.859375 42.3125 60.984375 
Q 38.140625 64.109375 28.90625 64.109375 
L 18.109375 64.109375 
z
" id="OpenSans-Regular-52"/>
      <path d="M 31.203125 -0.984375 
Q 19.34375 -0.984375 12.46875 6.25 
Q 5.609375 13.484375 5.609375 26.3125 
Q 5.609375 39.265625 11.984375 46.875 
Q 18.359375 54.5 29.109375 54.5 
Q 39.15625 54.5 45.015625 47.875 
Q 50.875 41.265625 50.875 30.421875 
L 50.875 25.296875 
L 14.015625 25.296875 
Q 14.265625 15.875 18.78125 10.984375 
Q 23.296875 6.109375 31.5 6.109375 
Q 40.140625 6.109375 48.578125 9.71875 
L 48.578125 2.484375 
Q 44.28125 0.640625 40.453125 -0.171875 
Q 36.625 -0.984375 31.203125 -0.984375 
z
M 29 47.703125 
Q 22.5625 47.703125 18.71875 43.5 
Q 14.890625 39.3125 14.203125 31.890625 
L 42.1875 31.890625 
Q 42.1875 39.546875 38.765625 43.625 
Q 35.359375 47.703125 29 47.703125 
z
" id="OpenSans-Regular-65"/>
      <path d="M 52.296875 0 
L 42.484375 31.390625 
Q 41.546875 34.28125 39.015625 44.484375 
L 38.625 44.484375 
Q 36.671875 35.9375 35.203125 31.296875 
L 25.09375 0 
L 15.71875 0 
L 1.125 53.515625 
L 9.625 53.515625 
Q 14.796875 33.34375 17.5 22.796875 
Q 20.21875 12.25 20.609375 8.59375 
L 21 8.59375 
Q 21.53125 11.375 22.71875 15.796875 
Q 23.921875 20.21875 24.8125 22.796875 
L 34.625 53.515625 
L 43.40625 53.515625 
L 52.984375 22.796875 
Q 55.71875 14.40625 56.6875 8.6875 
L 57.078125 8.6875 
Q 57.28125 10.453125 58.125 14.109375 
Q 58.984375 17.78125 68.3125 53.515625 
L 76.703125 53.515625 
L 61.921875 0 
z
" id="OpenSans-Regular-77"/>
      <path d="M 45.015625 7.171875 
L 44.578125 7.171875 
Q 38.96875 -0.984375 27.78125 -0.984375 
Q 17.28125 -0.984375 11.4375 6.1875 
Q 5.609375 13.375 5.609375 26.609375 
Q 5.609375 39.84375 11.46875 47.171875 
Q 17.328125 54.5 27.78125 54.5 
Q 38.671875 54.5 44.484375 46.578125 
L 45.125 46.578125 
L 44.78125 50.4375 
L 44.578125 54.203125 
L 44.578125 75.984375 
L 52.6875 75.984375 
L 52.6875 0 
L 46.09375 0 
z
M 28.8125 5.8125 
Q 37.109375 5.8125 40.84375 10.328125 
Q 44.578125 14.84375 44.578125 24.90625 
L 44.578125 26.609375 
Q 44.578125 37.984375 40.796875 42.84375 
Q 37.015625 47.703125 28.71875 47.703125 
Q 21.578125 47.703125 17.796875 42.15625 
Q 14.015625 36.625 14.015625 26.515625 
Q 14.015625 16.265625 17.765625 11.03125 
Q 21.53125 5.8125 28.8125 5.8125 
z
" id="OpenSans-Regular-64"/>
     </defs>
     <g transform="translate(19.231563 110.627969)rotate(-90)scale(0.1 -0.1)">
      <use xlink:href="#OpenSans-Regular-52"/>
      <use x="61.816406" xlink:href="#OpenSans-Regular-65"/>
      <use x="117.888672" xlink:href="#OpenSans-Regular-77"/>
      <use x="195.671875" xlink:href="#OpenSans-Regular-61"/>
      <use x="251.287109" xlink:href="#OpenSans-Regular-72"/>
      <use x="292.076172" xlink:href="#OpenSans-Regular-64"/>
     </g>
    </g>
   </g>
   <g id="line2d_13">
    <path clip-path="url(#p34158634a6)" d="M 70.182273 132.022294 
L 74.920106 130.807479 
L 79.657938 134.26813 
L 84.395771 129.935643 
L 89.133604 132.153956 
L 93.871437 112.874931 
L 98.60927 116.158312 
L 103.347103 110.939972 
L 108.084936 116.568392 
L 112.822769 116.529745 
L 117.560601 104.978518 
L 122.298434 111.271993 
L 127.036267 113.430454 
L 131.7741 109.402961 
L 136.511933 106.135554 
L 141.249766 120.298457 
L 145.987599 116.739235 
L 150.725432 115.516809 
L 155.463264 109.072332 
L 160.201097 111.731568 
L 164.93893 105.390232 
L 169.676763 90.779377 
L 174.414596 102.147884 
L 179.152429 83.309894 
L 183.890262 85.963658 
L 188.628095 76.073004 
L 193.365927 80.312506 
L 198.10376 81.487625 
L 202.841593 81.744831 
L 207.579426 88.954759 
L 212.317259 83.279469 
L 217.055092 77.781952 
L 221.792925 74.859709 
L 226.530758 75.369749 
L 231.26859 74.364394 
L 236.006423 62.025208 
L 240.744256 58.885579 
L 245.482089 56.682602 
L 250.219922 66.868456 
L 254.957755 57.604369 
L 259.695588 52.784734 
L 264.433421 54.472748 
L 269.171253 57.499393 
L 273.909086 56.730358 
L 278.646919 48.74843 
L 283.384752 37.057346 
L 288.122585 48.384501 
L 292.860418 38.046148 
L 297.598251 41.887117 
L 302.336084 20.56 
L 307.073916 22.759304 
L 311.811749 24.494029 
L 316.549582 22.548794 
L 321.287415 20.722585 
L 326.025248 21.628295 
L 330.763081 40.572316 
L 335.500914 33.180629 
L 340.238747 36.240184 
L 344.976579 42.549641 
L 349.714412 38.223415 
L 354.452245 39.306727 
L 359.190078 33.519945 
L 363.927911 33.588248 
L 368.665744 53.912311 
L 373.403577 53.237078 
L 378.14141 50.093972 
L 382.879242 62.297128 
L 387.617075 70.769823 
L 392.354908 65.381069 
L 397.092741 75.553562 
L 401.830574 74.547709 
L 406.568407 87.713521 
L 411.30624 97.520523 
L 416.044073 99.087861 
L 420.781905 101.546042 
L 425.519738 105.368512 
L 430.257571 110.586329 
L 434.995404 116.997319 
L 439.733237 109.496034 
L 444.47107 114.027779 
L 449.208903 124.330897 
L 453.946736 120.619061 
L 458.684568 123.857948 
L 463.422401 120.514219 
L 468.160234 133.442845 
L 472.898067 126.718432 
L 477.6359 138.952378 
L 482.373733 136.951441 
L 487.111566 136.215835 
L 491.849399 147.878831 
L 496.587231 139.573506 
L 501.325064 147.187442 
L 506.062897 153.816866 
L 510.80073 165.36 
L 515.538563 156.241272 
L 520.276396 148.790436 
L 525.014229 131.010911 
L 529.752062 145.73498 
L 534.489894 148.897428 
L 539.227727 146.272747 
" style="fill:none;stroke:#1f77b4;stroke-linecap:square;stroke-width:1.5;"/>
   </g>
   <g id="line2d_14">
    <path clip-path="url(#p34158634a6)" d="M 70.182273 137.491917 
L 74.920106 141.278692 
L 79.657938 126.314734 
L 84.395771 127.535152 
L 89.133604 124.20349 
L 93.871437 131.829311 
L 98.60927 114.713145 
L 103.347103 116.122266 
L 108.084936 118.664373 
L 112.822769 110.373096 
L 117.560601 119.395688 
L 122.298434 118.189058 
L 127.036267 109.871232 
L 131.7741 110.531053 
L 136.511933 111.819015 
L 141.249766 107.46855 
L 145.987599 116.013406 
L 150.725432 114.006142 
L 155.463264 109.869 
L 160.201097 112.562362 
L 164.93893 108.559852 
L 169.676763 101.306557 
L 174.414596 97.254518 
L 179.152429 92.464443 
L 183.890262 83.27197 
L 188.628095 76.706765 
L 193.365927 70.563006 
L 198.10376 78.450085 
L 202.841593 84.585572 
L 207.579426 83.886911 
L 212.317259 78.767965 
L 217.055092 70.89119 
L 221.792925 70.374127 
L 226.530758 67.159611 
L 231.26859 70.647118 
L 236.006423 55.208676 
L 240.744256 64.337383 
L 245.482089 64.982709 
L 250.219922 47.523294 
L 254.957755 59.738696 
L 259.695588 50.906295 
L 264.433421 56.001787 
L 269.171253 49.905645 
L 273.909086 44.880978 
L 278.646919 51.899698 
L 283.384752 42.804004 
L 288.122585 36.709465 
L 292.860418 25.62325 
L 297.598251 31.282577 
L 302.336084 28.540557 
L 307.073916 22.538153 
L 311.811749 20.56 
L 316.549582 20.637252 
L 321.287415 23.511485 
L 326.025248 30.682986 
L 330.763081 30.844104 
L 335.500914 39.407989 
L 340.238747 34.831878 
L 344.976579 33.844656 
L 349.714412 38.571646 
L 354.452245 27.007845 
L 359.190078 28.302227 
L 363.927911 33.624719 
L 368.665744 42.728784 
L 373.403577 57.130405 
L 378.14141 55.861251 
L 382.879242 59.41933 
L 387.617075 63.96806 
L 392.354908 66.555594 
L 397.092741 84.638509 
L 401.830574 73.703359 
L 406.568407 78.574527 
L 411.30624 89.092427 
L 416.044073 100.551862 
L 420.781905 101.327404 
L 425.519738 99.616969 
L 430.257571 109.474478 
L 434.995404 117.793456 
L 439.733237 105.997763 
L 444.47107 118.771055 
L 449.208903 124.575284 
L 453.946736 118.844037 
L 458.684568 115.443238 
L 463.422401 125.084771 
L 468.160234 136.531745 
L 472.898067 130.017003 
L 477.6359 136.208764 
L 482.373733 139.377254 
L 487.111566 134.635334 
L 491.849399 138.676088 
L 496.587231 142.095926 
L 501.325064 159.02928 
L 506.062897 155.058747 
L 510.80073 157.957234 
L 515.538563 165.36 
L 520.276396 161.361623 
L 525.014229 149.838159 
L 529.752062 147.127672 
L 534.489894 148.120693 
L 539.227727 158.634132 
" style="fill:none;stroke:#ff7f0e;stroke-linecap:square;stroke-width:1.5;"/>
   </g>
   <g id="line2d_15">
    <path clip-path="url(#p34158634a6)" d="M 70.182273 20.56 
L 74.920106 31.733675 
L 79.657938 32.678171 
L 84.395771 32.945109 
L 89.133604 36.677531 
L 93.871437 38.235994 
L 98.60927 42.570341 
L 103.347103 52.301447 
L 108.084936 52.778639 
L 112.822769 49.215946 
L 117.560601 46.176378 
L 122.298434 47.697429 
L 127.036267 52.535617 
L 131.7741 48.577394 
L 136.511933 55.878665 
L 141.249766 48.916573 
L 145.987599 50.856208 
L 150.725432 56.300013 
L 155.463264 50.841778 
L 160.201097 51.886362 
L 164.93893 60.570659 
L 169.676763 58.820492 
L 174.414596 72.176018 
L 179.152429 67.766272 
L 183.890262 68.381264 
L 188.628095 73.335226 
L 193.365927 77.232421 
L 198.10376 82.470127 
L 202.841593 84.459164 
L 207.579426 84.077975 
L 212.317259 92.390041 
L 217.055092 93.687971 
L 221.792925 99.197496 
L 226.530758 94.769776 
L 231.26859 97.100862 
L 236.006423 100.700316 
L 240.744256 106.103189 
L 245.482089 104.84739 
L 250.219922 115.157564 
L 254.957755 116.697355 
L 259.695588 119.640937 
L 264.433421 124.685365 
L 269.171253 130.172889 
L 273.909086 125.664155 
L 278.646919 136.886064 
L 283.384752 143.051804 
L 288.122585 146.430967 
L 292.860418 142.761556 
L 297.598251 155.573313 
L 302.336084 162.881871 
L 307.073916 165.36 
L 311.811749 147.504347 
L 316.549582 141.061595 
L 321.287415 132.778714 
L 326.025248 138.670609 
L 330.763081 130.983589 
L 335.500914 125.713928 
L 340.238747 128.168424 
L 344.976579 130.725765 
L 349.714412 126.938043 
L 354.452245 117.053704 
L 359.190078 118.682004 
L 363.927911 116.133764 
L 368.665744 115.471038 
L 373.403577 112.660996 
L 378.14141 110.08277 
L 382.879242 106.08345 
L 387.617075 105.088625 
L 392.354908 101.753197 
L 397.092741 107.706578 
L 401.830574 116.426657 
L 406.568407 120.214796 
L 411.30624 121.871591 
L 416.044073 117.820602 
L 420.781905 114.601944 
L 425.519738 119.135907 
L 430.257571 104.554852 
L 434.995404 104.172565 
L 439.733237 85.938568 
L 444.47107 72.423774 
L 449.208903 85.349844 
L 453.946736 74.230477 
L 458.684568 82.097576 
L 463.422401 84.470445 
L 468.160234 85.311551 
L 472.898067 86.205184 
L 477.6359 83.69129 
L 482.373733 75.455764 
L 487.111566 80.771721 
L 491.849399 67.899619 
L 496.587231 55.47694 
L 501.325064 56.167994 
L 506.062897 53.037874 
L 510.80073 66.009795 
L 515.538563 66.267289 
L 520.276396 62.932276 
L 525.014229 58.652596 
L 529.752062 60.61016 
L 534.489894 55.180001 
L 539.227727 61.045552 
" style="fill:none;stroke:#2ca02c;stroke-linecap:square;stroke-width:1.5;"/>
   </g>
   <g id="line2d_16">
    <path clip-path="url(#p34158634a6)" d="M 70.182273 20.56 
L 74.920106 31.511549 
L 79.657938 30.397374 
L 84.395771 35.473923 
L 89.133604 37.530364 
L 93.871437 32.477421 
L 98.60927 42.822266 
L 103.347103 57.734858 
L 108.084936 51.039082 
L 112.822769 51.666661 
L 117.560601 52.489305 
L 122.298434 47.737025 
L 127.036267 57.861703 
L 131.7741 52.164069 
L 136.511933 59.553279 
L 141.249766 57.509986 
L 145.987599 54.733021 
L 150.725432 56.334459 
L 155.463264 52.539979 
L 160.201097 55.26905 
L 164.93893 64.988827 
L 169.676763 61.230516 
L 174.414596 72.299388 
L 179.152429 74.505399 
L 183.890262 74.251126 
L 188.628095 78.248119 
L 193.365927 82.726091 
L 198.10376 79.255424 
L 202.841593 82.05954 
L 207.579426 85.618027 
L 212.317259 87.894607 
L 217.055092 90.847208 
L 221.792925 96.579184 
L 226.530758 107.267652 
L 231.26859 100.851118 
L 236.006423 101.625911 
L 240.744256 107.26914 
L 245.482089 114.55063 
L 250.219922 116.15769 
L 254.957755 119.357472 
L 259.695588 131.41866 
L 264.433421 128.17235 
L 269.171253 135.768515 
L 273.909086 133.83646 
L 278.646919 137.55135 
L 283.384752 141.256919 
L 288.122585 143.201321 
L 292.860418 151.511773 
L 297.598251 159.185695 
L 302.336084 165.004817 
L 307.073916 165.36 
L 311.811749 151.566775 
L 316.549582 144.711933 
L 321.287415 138.425978 
L 326.025248 144.936985 
L 330.763081 135.688465 
L 335.500914 129.186402 
L 340.238747 134.195972 
L 344.976579 129.827369 
L 349.714412 131.688622 
L 354.452245 122.859612 
L 359.190078 120.16807 
L 363.927911 117.361303 
L 368.665744 114.66232 
L 373.403577 118.155325 
L 378.14141 118.01089 
L 382.879242 108.324056 
L 387.617075 108.379053 
L 392.354908 106.636939 
L 397.092741 106.126453 
L 401.830574 115.781213 
L 406.568407 117.109201 
L 411.30624 121.784384 
L 416.044073 127.145843 
L 420.781905 118.809861 
L 425.519738 109.273666 
L 430.257571 109.132552 
L 434.995404 106.848239 
L 439.733237 86.986155 
L 444.47107 70.719497 
L 449.208903 84.09223 
L 453.946736 78.927377 
L 458.684568 84.348783 
L 463.422401 87.446905 
L 468.160234 97.335596 
L 472.898067 87.753873 
L 477.6359 86.736976 
L 482.373733 78.155645 
L 487.111566 80.346829 
L 491.849399 73.334657 
L 496.587231 66.17811 
L 501.325064 62.152618 
L 506.062897 62.694288 
L 510.80073 72.679925 
L 515.538563 71.904744 
L 520.276396 69.42751 
L 525.014229 67.921137 
L 529.752062 59.985102 
L 534.489894 61.434885 
L 539.227727 60.781851 
" style="fill:none;stroke:#d62728;stroke-linecap:square;stroke-width:1.5;"/>
   </g>
   <g id="patch_3">
    <path d="M 46.73 172.6 
L 46.73 13.32 
" style="fill:none;stroke:#000000;stroke-linecap:square;stroke-linejoin:miter;stroke-width:0.8;"/>
   </g>
   <g id="patch_4">
    <path d="M 562.68 172.6 
L 562.68 13.32 
" style="fill:none;stroke:#000000;stroke-linecap:square;stroke-linejoin:miter;stroke-width:0.8;"/>
   </g>
   <g id="patch_5">
    <path d="M 46.73 172.6 
L 562.68 172.6 
" style="fill:none;stroke:#000000;stroke-linecap:square;stroke-linejoin:miter;stroke-width:0.8;"/>
   </g>
   <g id="patch_6">
    <path d="M 46.73 13.32 
L 562.68 13.32 
" style="fill:none;stroke:#000000;stroke-linecap:square;stroke-linejoin:miter;stroke-width:0.8;"/>
   </g>
   <g id="legend_1">
    <g id="patch_7">
     <path d="M 489.983125 81.32625 
L 555.68 81.32625 
Q 557.68 81.32625 557.68 79.32625 
L 557.68 20.32 
Q 557.68 18.32 555.68 18.32 
L 489.983125 18.32 
Q 487.983125 18.32 487.983125 20.32 
L 487.983125 79.32625 
Q 487.983125 81.32625 489.983125 81.32625 
z
" style="fill:#fbfbfb;opacity:0.8;stroke:#cccccc;stroke-linejoin:miter;"/>
    </g>
    <g id="line2d_17">
     <path d="M 491.983125 26.418438 
L 511.983125 26.418438 
" style="fill:none;stroke:#1f77b4;stroke-linecap:square;stroke-width:1.5;"/>
    </g>
    <g id="line2d_18"/>
    <g id="text_15">
     <!-- State H -->
     <defs>
      <path d="M 50.09375 19 
Q 50.09375 9.578125 43.25 4.296875 
Q 36.421875 -0.984375 24.703125 -0.984375 
Q 12.015625 -0.984375 5.171875 2.296875 
L 5.171875 10.296875 
Q 9.578125 8.453125 14.75 7.375 
Q 19.921875 6.296875 25 6.296875 
Q 33.296875 6.296875 37.5 9.4375 
Q 41.703125 12.59375 41.703125 18.21875 
Q 41.703125 21.921875 40.203125 24.28125 
Q 38.71875 26.65625 35.21875 28.65625 
Q 31.734375 30.671875 24.609375 33.203125 
Q 14.65625 36.765625 10.375 41.640625 
Q 6.109375 46.53125 6.109375 54.390625 
Q 6.109375 62.640625 12.296875 67.515625 
Q 18.5 72.40625 28.71875 72.40625 
Q 39.359375 72.40625 48.296875 68.5 
L 45.703125 61.28125 
Q 36.859375 64.984375 28.515625 64.984375 
Q 21.921875 64.984375 18.203125 62.15625 
Q 14.5 59.328125 14.5 54.296875 
Q 14.5 50.59375 15.859375 48.21875 
Q 17.234375 45.84375 20.484375 43.859375 
Q 23.734375 41.890625 30.421875 39.5 
Q 41.65625 35.5 45.875 30.90625 
Q 50.09375 26.3125 50.09375 19 
z
" id="OpenSans-Regular-53"/>
      <path d="M 25.875 5.71875 
Q 28.03125 5.71875 30.03125 6.03125 
Q 32.03125 6.34375 33.203125 6.6875 
L 33.203125 0.484375 
Q 31.890625 -0.140625 29.328125 -0.5625 
Q 26.765625 -0.984375 24.703125 -0.984375 
Q 9.1875 -0.984375 9.1875 15.375 
L 9.1875 47.21875 
L 1.515625 47.21875 
L 1.515625 51.125 
L 9.1875 54.5 
L 12.59375 65.921875 
L 17.28125 65.921875 
L 17.28125 53.515625 
L 32.8125 53.515625 
L 32.8125 47.21875 
L 17.28125 47.21875 
L 17.28125 15.71875 
Q 17.28125 10.890625 19.578125 8.296875 
Q 21.875 5.71875 25.875 5.71875 
z
" id="OpenSans-Regular-74"/>
      <path id="OpenSans-Regular-20"/>
      <path d="M 64.015625 0 
L 55.71875 0 
L 55.71875 33.59375 
L 18.109375 33.59375 
L 18.109375 0 
L 9.8125 0 
L 9.8125 71.390625 
L 18.109375 71.390625 
L 18.109375 41.015625 
L 55.71875 41.015625 
L 55.71875 71.390625 
L 64.015625 71.390625 
z
" id="OpenSans-Regular-48"/>
     </defs>
     <g transform="translate(519.983125 29.918438)scale(0.1 -0.1)">
      <use xlink:href="#OpenSans-Regular-53"/>
      <use x="54.882812" xlink:href="#OpenSans-Regular-74"/>
      <use x="90.185547" xlink:href="#OpenSans-Regular-61"/>
      <use x="145.800781" xlink:href="#OpenSans-Regular-74"/>
      <use x="181.103516" xlink:href="#OpenSans-Regular-65"/>
      <use x="237.207031" xlink:href="#OpenSans-Regular-20"/>
      <use x="263.183594" xlink:href="#OpenSans-Regular-48"/>
     </g>
    </g>
    <g id="line2d_19">
     <path d="M 491.983125 41.42 
L 511.983125 41.42 
" style="fill:none;stroke:#ff7f0e;stroke-linecap:square;stroke-width:1.5;"/>
    </g>
    <g id="line2d_20"/>
    <g id="text_16">
     <!-- State I -->
     <defs>
      <path d="M 9.8125 0 
L 9.8125 71.390625 
L 18.109375 71.390625 
L 18.109375 0 
z
" id="OpenSans-Regular-49"/>
     </defs>
     <g transform="translate(519.983125 44.92)scale(0.1 -0.1)">
      <use xlink:href="#OpenSans-Regular-53"/>
      <use x="54.882812" xlink:href="#OpenSans-Regular-74"/>
      <use x="90.185547" xlink:href="#OpenSans-Regular-61"/>
      <use x="145.800781" xlink:href="#OpenSans-Regular-74"/>
      <use x="181.103516" xlink:href="#OpenSans-Regular-65"/>
      <use x="237.207031" xlink:href="#OpenSans-Regular-20"/>
      <use x="263.183594" xlink:href="#OpenSans-Regular-49"/>
     </g>
    </g>
    <g id="line2d_21">
     <path d="M 491.983125 56.421562 
L 511.983125 56.421562 
" style="fill:none;stroke:#2ca02c;stroke-linecap:square;stroke-width:1.5;"/>
    </g>
    <g id="line2d_22"/>
    <g id="text_17">
     <!-- State J -->
     <defs>
      <path d="M -0.59375 -18.796875 
Q -5.171875 -18.796875 -7.8125 -17.484375 
L -7.8125 -10.40625 
Q -4.34375 -11.375 -0.59375 -11.375 
Q 4.25 -11.375 6.765625 -8.4375 
Q 9.28125 -5.515625 9.28125 0 
L 9.28125 71.390625 
L 17.578125 71.390625 
L 17.578125 0.6875 
Q 17.578125 -8.59375 12.890625 -13.6875 
Q 8.203125 -18.796875 -0.59375 -18.796875 
z
" id="OpenSans-Regular-4a"/>
     </defs>
     <g transform="translate(519.983125 59.921562)scale(0.1 -0.1)">
      <use xlink:href="#OpenSans-Regular-53"/>
      <use x="54.882812" xlink:href="#OpenSans-Regular-74"/>
      <use x="90.185547" xlink:href="#OpenSans-Regular-61"/>
      <use x="145.800781" xlink:href="#OpenSans-Regular-74"/>
      <use x="181.103516" xlink:href="#OpenSans-Regular-65"/>
      <use x="237.207031" xlink:href="#OpenSans-Regular-20"/>
      <use x="263.183594" xlink:href="#OpenSans-Regular-4a"/>
     </g>
    </g>
    <g id="line2d_23">
     <path d="M 491.983125 71.423125 
L 511.983125 71.423125 
" style="fill:none;stroke:#d62728;stroke-linecap:square;stroke-width:1.5;"/>
    </g>
    <g id="line2d_24"/>
    <g id="text_18">
     <!-- State K -->
     <defs>
      <path d="M 61.375 0 
L 51.609375 0 
L 25.59375 34.625 
L 18.109375 27.984375 
L 18.109375 0 
L 9.8125 0 
L 9.8125 71.390625 
L 18.109375 71.390625 
L 18.109375 35.984375 
L 50.484375 71.390625 
L 60.296875 71.390625 
L 31.59375 40.375 
z
" id="OpenSans-Regular-4b"/>
     </defs>
     <g transform="translate(519.983125 74.923125)scale(0.1 -0.1)">
      <use xlink:href="#OpenSans-Regular-53"/>
      <use x="54.882812" xlink:href="#OpenSans-Regular-74"/>
      <use x="90.185547" xlink:href="#OpenSans-Regular-61"/>
      <use x="145.800781" xlink:href="#OpenSans-Regular-74"/>
      <use x="181.103516" xlink:href="#OpenSans-Regular-65"/>
      <use x="237.207031" xlink:href="#OpenSans-Regular-20"/>
      <use x="263.183594" xlink:href="#OpenSans-Regular-4b"/>
     </g>
    </g>
   </g>
  </g>
 </g>
 <defs>
  <clipPath id="p34158634a6">
   <rect height="159.28" width="515.95" x="46.73" y="13.32"/>
  </clipPath>
 </defs>
</svg>
